# xmcd
#
# Track frame offsets:
#	150
#	17551
#	35177
#	51574
#	66235
#	84984
#	102310
#	119711
#	137337
#	153734
#	168395
#	187145
#
# Disc length: 2728 seconds
#
# Revision: 1
# Processed by: cddbd v1.5.2PL0 Copyright (c) Steve Scherf et al.
# Submitted via: audiograbber 1.83.01
#
DISCID=ae0aa60c
DTITLE=Various Artist - CB 2008
DYEAR=1900
DGENRE=Karaoke
TTITLE0=Tim McGraw - Just To see You Smile (Vocal)
TTITLE1=Lee Roy Parnell - You Can't get There From Here (Vocal)
TTITLE2=Pam Tillis - The Land Of The Liviing (Vocal)
TTITLE3=Jeff Moore - Wrangler Butts (Vocal)
TTITLE4=Sawyer Brown - This Night I Won't Forget  (Vocal)
TTITLE5=Tammy Graham - Cool Water (Vocal)
TTITLE6=Tim McGraw - Just To see You Smile 
TTITLE7=Lee Roy Parnell - You Can't get There From Here
TTITLE8=Pam Tillis - The Land Of The Liviing
TTITLE9=Jeff Moore - Wrangler Butts
TTITLE10=Sawyer Brown - This Night I Won't Forget
TTITLE11=Tammy Graham - Cool Water
EXTD=Chart Busters 6+6 Series
EXTT0=
EXTT1=
EXTT2=
EXTT3=
EXTT4=
EXTT5=
EXTT6=
EXTT7=
EXTT8=
EXTT9=
EXTT10=
EXTT11=
PLAYORDER=
